# xmcd
#
# Track frame offsets:
#	150
#	14643
#	27818
#	41672
#	59813
#	64288
#	82447
#	94607
#	111622
#	126525
#	140228
#	162652
#
# Disc length: 2351 seconds
#
# Revision: 1
# Processed by: cddbd v1.5.1PL0 Copyright (c) Steve Scherf et al.
# Submitted via: audiograbber 1.83.01
#
DISCID=c6092d0c
DTITLE=Classy Chassis Country - On Our Own
DYEAR=1900
DGENRE=Country
TTITLE0=Oklahoma Swing
TTITLE1=Mi Vida Loca
TTITLE2=I Can't Help Falling In Love
TTITLE3=Fast As You
TTITLE4=Dedication
TTITLE5=She'd Be Eighteen Today
TTITLE6=Your'e the Sweetest Thing This Side of Heaven
TTITLE7=It Was
TTITLE8=Glances Across the Room
TTITLE9=Watermelon Crawl
TTITLE10=It's Never Easy to Say Good-bye
TTITLE11=Rocky Top
EXTD=
EXTT0=
EXTT1=
EXTT2=
EXTT3=
EXTT4=
EXTT5=
EXTT6=
EXTT7=
EXTT8=
EXTT9=
EXTT10=
EXTT11=
PLAYORDER=
